<svg width="16" height="18" viewBox="0 0 16 18" fill="none" xmlns="http://www.w3.org/2000/svg">
<path d="M10.6666 17.6665H5.33327C4.44922 17.6665 3.60137 17.3153 2.97625 16.6902C2.35113 16.0651 1.99994 15.2172 1.99994 14.3332V6.33317C1.99994 6.15636 2.07018 5.98679 2.1952 5.86177C2.32023 5.73674 2.48979 5.6665 2.66661 5.6665C2.84342 5.6665 3.01299 5.73674 3.13801 5.86177C3.26303 5.98679 3.33327 6.15636 3.33327 6.33317V14.3332C3.33327 14.8636 3.54399 15.3723 3.91906 15.7474C4.29413 16.1225 4.80284 16.3332 5.33327 16.3332H10.6666C11.197 16.3332 11.7057 16.1225 12.0808 15.7474C12.4559 15.3723 12.6666 14.8636 12.6666 14.3332V6.33317C12.6666 6.15636 12.7368 5.98679 12.8619 5.86177C12.9869 5.73674 13.1565 5.6665 13.3333 5.6665C13.5101 5.6665 13.6797 5.73674 13.8047 5.86177C13.9297 5.98679 13.9999 6.15636 13.9999 6.33317V14.3332C13.9999 15.2172 13.6487 16.0651 13.0236 16.6902C12.3985 17.3153 11.5507 17.6665 10.6666 17.6665V17.6665Z" fill="#FF6363"/>
<path d="M14.6666 4.33333H1.33329C1.15648 4.33333 0.986913 4.2631 0.861888 4.13807C0.736864 4.01305 0.666626 3.84348 0.666626 3.66667C0.666626 3.48986 0.736864 3.32029 0.861888 3.19526C0.986913 3.07024 1.15648 3 1.33329 3H14.6666C14.8434 3 15.013 3.07024 15.138 3.19526C15.2631 3.32029 15.3333 3.48986 15.3333 3.66667C15.3333 3.84348 15.2631 4.01305 15.138 4.13807C15.013 4.2631 14.8434 4.33333 14.6666 4.33333Z" fill="#FF6363"/>
<path d="M10.6666 4.33325H5.33329C5.15648 4.33325 4.98691 4.26301 4.86189 4.13799C4.73686 4.01297 4.66663 3.8434 4.66663 3.66659V2.33325C4.66663 1.80282 4.87734 1.29411 5.25241 0.919039C5.62749 0.543966 6.13619 0.333252 6.66663 0.333252H9.33329C9.86373 0.333252 10.3724 0.543966 10.7475 0.919039C11.1226 1.29411 11.3333 1.80282 11.3333 2.33325V3.66659C11.3333 3.8434 11.2631 4.01297 11.138 4.13799C11.013 4.26301 10.8434 4.33325 10.6666 4.33325ZM5.99996 2.99992H9.99996V2.33325C9.99996 2.15644 9.92972 1.98687 9.8047 1.86185C9.67967 1.73682 9.5101 1.66659 9.33329 1.66659H6.66663C6.48982 1.66659 6.32025 1.73682 6.19522 1.86185C6.0702 1.98687 5.99996 2.15644 5.99996 2.33325V2.99992Z" fill="#FF6363"/>
<path d="M6.66667 13.6665C6.48986 13.6665 6.32029 13.5963 6.19526 13.4712C6.07024 13.3462 6 13.1766 6 12.9998V8.33317C6 8.15636 6.07024 7.98679 6.19526 7.86177C6.32029 7.73674 6.48986 7.6665 6.66667 7.6665C6.84348 7.6665 7.01305 7.73674 7.13807 7.86177C7.2631 7.98679 7.33333 8.15636 7.33333 8.33317V12.9998C7.33333 13.1766 7.2631 13.3462 7.13807 13.4712C7.01305 13.5963 6.84348 13.6665 6.66667 13.6665Z" fill="#FF6363"/>
<path d="M9.33329 13.6665C9.15648 13.6665 8.98691 13.5963 8.86189 13.4712C8.73686 13.3462 8.66663 13.1766 8.66663 12.9998V8.33317C8.66663 8.15636 8.73686 7.98679 8.86189 7.86177C8.98691 7.73674 9.15648 7.6665 9.33329 7.6665C9.5101 7.6665 9.67967 7.73674 9.8047 7.86177C9.92972 7.98679 9.99996 8.15636 9.99996 8.33317V12.9998C9.99996 13.1766 9.92972 13.3462 9.8047 13.4712C9.67967 13.5963 9.5101 13.6665 9.33329 13.6665Z" fill="#FF6363"/>
</svg>
