<svg width="18" height="18" viewBox="0 0 18 18" fill="none" xmlns="http://www.w3.org/2000/svg">
<path d="M8.16663 2.33325H2.33329C1.89127 2.33325 1.46734 2.50885 1.15478 2.82141C0.842221 3.13397 0.666626 3.55789 0.666626 3.99992V15.6666C0.666626 16.1086 0.842221 16.5325 1.15478 16.8451C1.46734 17.1577 1.89127 17.3333 2.33329 17.3333H14C14.442 17.3333 14.8659 17.1577 15.1785 16.8451C15.491 16.5325 15.6666 16.1086 15.6666 15.6666V9.83325" stroke="#5A7FFF" stroke-linecap="round" stroke-linejoin="round"/>
<path d="M14.4166 1.08344C14.7481 0.75192 15.1978 0.565674 15.6666 0.565674C16.1355 0.565674 16.5851 0.75192 16.9166 1.08344C17.2481 1.41496 17.4344 1.8646 17.4344 2.33344C17.4344 2.80228 17.2481 3.25192 16.9166 3.58344L8.99996 11.5001L5.66663 12.3334L6.49996 9.00011L14.4166 1.08344Z" stroke="#5A7FFF" stroke-linecap="round" stroke-linejoin="round"/>
</svg>
