<svg width="19" height="33" viewBox="0 0 19 33" fill="none" xmlns="http://www.w3.org/2000/svg">
<path d="M15.2 4.02136H13.8213V3.48803C13.8213 3.27586 13.737 3.07237 13.587 2.92234C13.437 2.77232 13.2335 2.68803 13.0213 2.68803H11.9227C11.8181 2.00587 11.4727 1.3837 10.9491 0.934191C10.4254 0.484681 9.75812 0.237549 9.068 0.237549C8.37787 0.237549 7.71056 0.484681 7.18691 0.934191C6.66326 1.3837 6.31788 2.00587 6.21333 2.68803H5.112C4.89983 2.68803 4.69634 2.77232 4.54631 2.92234C4.39629 3.07237 4.312 3.27586 4.312 3.48803V4.02136H2.93333C2.15536 4.02136 1.40926 4.33041 0.859153 4.88052C0.309047 5.43062 0 6.17673 0 6.9547V20.8214C0 21.5993 0.309047 22.3454 0.859153 22.8955C1.40926 23.4457 2.15536 23.7547 2.93333 23.7547H15.2C15.978 23.7547 16.7241 23.4457 17.2742 22.8955C17.8243 22.3454 18.1333 21.5993 18.1333 20.8214V6.9547C18.1333 6.17673 17.8243 5.43062 17.2742 4.88052C16.7241 4.33041 15.978 4.02136 15.2 4.02136ZM5.912 4.28803H6.97867C7.19084 4.28803 7.39432 4.20374 7.54435 4.05372C7.69438 3.90369 7.77867 3.7002 7.77867 3.48803V3.13336C7.77867 2.79141 7.91451 2.46346 8.1563 2.22167C8.3981 1.97987 8.72605 1.84403 9.068 1.84403C9.40995 1.84403 9.7379 1.97987 9.9797 2.22167C10.2215 2.46346 10.3573 2.79141 10.3573 3.13336V3.4907C10.3573 3.70287 10.4416 3.90635 10.5916 4.05638C10.7417 4.20641 10.9452 4.2907 11.1573 4.2907H12.224V6.11203H5.912V4.28803ZM13.048 13.224L8.44533 17.304C8.29811 17.4339 8.10829 17.5051 7.912 17.504H7.86667C7.76164 17.4981 7.65883 17.4714 7.56411 17.4257C7.46939 17.3799 7.38463 17.3159 7.31467 17.2374L5.01333 14.6294C4.87188 14.4702 4.79944 14.2614 4.81195 14.0489C4.81814 13.9436 4.84499 13.8407 4.89099 13.7458C4.93698 13.6509 5.00121 13.5661 5.08 13.496C5.15879 13.426 5.25061 13.3722 5.35021 13.3376C5.44981 13.3031 5.55523 13.2885 5.66047 13.2946C5.87301 13.3071 6.07188 13.4036 6.21333 13.5627L7.984 15.5707L12 12.0267C12.1588 11.8852 12.3672 11.8127 12.5795 11.8249C12.7918 11.8372 12.9906 11.9333 13.132 12.092C13.2734 12.2508 13.346 12.4593 13.3338 12.6716C13.3215 12.8839 13.2254 13.0826 13.0667 13.224H13.048Z" fill="#550DC9"/>
<path d="M4.5918 28.4463H3.28516V32H2.40625V28.4463H1.11719V27.7344H4.5918V28.4463ZM4.29883 30.3857C4.29883 30.0713 4.35938 29.791 4.48047 29.5449C4.60156 29.2988 4.77539 29.1084 5.00195 28.9736C5.23047 28.8389 5.49512 28.7715 5.7959 28.7715C6.22363 28.7715 6.57227 28.9023 6.8418 29.1641C7.11328 29.4258 7.26465 29.7812 7.2959 30.2305L7.30176 30.4473C7.30176 30.9336 7.16602 31.3242 6.89453 31.6191C6.62305 31.9121 6.25879 32.0586 5.80176 32.0586C5.34473 32.0586 4.97949 31.9121 4.70605 31.6191C4.43457 31.3262 4.29883 30.9277 4.29883 30.4238V30.3857ZM5.14551 30.4473C5.14551 30.748 5.20215 30.9785 5.31543 31.1387C5.42871 31.2969 5.59082 31.376 5.80176 31.376C6.00684 31.376 6.16699 31.2979 6.28223 31.1416C6.39746 30.9834 6.45508 30.7314 6.45508 30.3857C6.45508 30.0908 6.39746 29.8623 6.28223 29.7002C6.16699 29.5381 6.00488 29.457 5.7959 29.457C5.58887 29.457 5.42871 29.5381 5.31543 29.7002C5.20215 29.8604 5.14551 30.1094 5.14551 30.4473ZM9.46973 30.5146H7.82031V29.832H9.46973V30.5146ZM10.2051 32V27.7344H11.5176C11.8926 27.7344 12.2275 27.8193 12.5225 27.9893C12.8193 28.1572 13.0508 28.3975 13.2168 28.71C13.3828 29.0205 13.4658 29.374 13.4658 29.7705V29.9668C13.4658 30.3633 13.3838 30.7158 13.2197 31.0244C13.0576 31.333 12.8281 31.5723 12.5312 31.7422C12.2344 31.9121 11.8994 31.998 11.5264 32H10.2051ZM11.084 28.4463V31.2939H11.5088C11.8525 31.2939 12.1152 31.1816 12.2969 30.957C12.4785 30.7324 12.5713 30.4111 12.5752 29.9932V29.7676C12.5752 29.334 12.4854 29.0059 12.3057 28.7832C12.126 28.5586 11.8633 28.4463 11.5176 28.4463H11.084ZM13.9199 30.3857C13.9199 30.0713 13.9805 29.791 14.1016 29.5449C14.2227 29.2988 14.3965 29.1084 14.623 28.9736C14.8516 28.8389 15.1162 28.7715 15.417 28.7715C15.8447 28.7715 16.1934 28.9023 16.4629 29.1641C16.7344 29.4258 16.8857 29.7812 16.917 30.2305L16.9229 30.4473C16.9229 30.9336 16.7871 31.3242 16.5156 31.6191C16.2441 31.9121 15.8799 32.0586 15.4229 32.0586C14.9658 32.0586 14.6006 31.9121 14.3271 31.6191C14.0557 31.3262 13.9199 30.9277 13.9199 30.4238V30.3857ZM14.7666 30.4473C14.7666 30.748 14.8232 30.9785 14.9365 31.1387C15.0498 31.2969 15.2119 31.376 15.4229 31.376C15.6279 31.376 15.7881 31.2979 15.9033 31.1416C16.0186 30.9834 16.0762 30.7314 16.0762 30.3857C16.0762 30.0908 16.0186 29.8623 15.9033 29.7002C15.7881 29.5381 15.626 29.457 15.417 29.457C15.21 29.457 15.0498 29.5381 14.9365 29.7002C14.8232 29.8604 14.7666 30.1094 14.7666 30.4473Z" fill="#373737"/>
</svg>
